<?xml version="1.0" encoding="utf-8"?>
<!-- Generator: Adobe Illustrator 28.2.0, SVG Export Plug-In . SVG Version: 6.00 Build 0)  -->
<svg version="1.1" id="Layer_1" xmlns="http://www.w3.org/2000/svg" xmlns:xlink="http://www.w3.org/1999/xlink" x="0px" y="0px"
	 viewBox="0 0 841.9 595.3" style="enable-background:new 0 0 841.9 595.3;" xml:space="preserve">
<style type="text/css">
	.st0{fill:url(#SVGID_1_);stroke:#000000;stroke-width:3.1877;stroke-miterlimit:10;}
	
		.st1{fill:url(#SVGID_00000016074450231407031940000010640345281403461002_);stroke:#000000;stroke-width:4.436;stroke-miterlimit:10;}
	
		.st2{fill:url(#SVGID_00000082352109067082131780000013941751502161836471_);stroke:#000000;stroke-width:4.2275;stroke-miterlimit:10;}
</style>
<g>
	
		<linearGradient id="SVGID_1_" gradientUnits="userSpaceOnUse" x1="1144.2147" y1="918.5866" x2="1144.2147" y2="918.5866" gradientTransform="matrix(-3.464102e-07 1 -1 -3.464102e-07 1383.9755 -737.3635)">
		<stop  offset="0" style="stop-color:#00AEEF"/>
		<stop  offset="1" style="stop-color:#FFFFFF;stop-opacity:0"/>
	</linearGradient>
	<path class="st0" d="M465.4,406.9"/>
	
		<linearGradient id="SVGID_00000127045022866483856410000007403770918912405649_" gradientUnits="userSpaceOnUse" x1="1035.2919" y1="815.0527" x2="1031.4827" y2="1156.6984" gradientTransform="matrix(-3.464102e-07 1 -1 -3.464102e-07 1383.9755 -737.3635)">
		<stop  offset="0" style="stop-color:#00AEEF"/>
		<stop  offset="1" style="stop-color:#FFFFFF;stop-opacity:0"/>
	</linearGradient>
	
		<path style="fill:url(#SVGID_00000127045022866483856410000007403770918912405649_);stroke:#000000;stroke-width:4.436;stroke-miterlimit:10;" d="
		M532.1,421.1v-247c0-14.2,9-23.1,16.2-16L673,281.6c7.2,7.1,7.2,24.9,0,32L548.3,437.1C541.1,444.2,532.1,435.4,532.1,421.1z"/>
	
		<linearGradient id="SVGID_00000037671517481791094940000011095312650626085763_" gradientUnits="userSpaceOnUse" x1="1031.1794" y1="799.561" x2="1037.4651" y2="1140.5619" gradientTransform="matrix(-3.464102e-07 1 -1 -3.464102e-07 1383.9755 -737.3635)">
		<stop  offset="0" style="stop-color:#00AEEF"/>
		<stop  offset="1" style="stop-color:#FFFFFF;stop-opacity:0"/>
	</linearGradient>
	
		<path style="fill:url(#SVGID_00000037671517481791094940000011095312650626085763_);stroke:#000000;stroke-width:4.2275;stroke-miterlimit:10;" d="
		M523.3,377.6h-292c-18.1,0-32.7-22.8-32.7-51v-58c0-28.2,14.7-51,32.7-51l292,0c3,0,6,0.7,8.8,1.9l0,156.3
		C529.3,377,526.4,377.6,523.3,377.6z"/>
</g>
</svg>
